<svg xmlns="http://www.w3.org/2000/svg" width="498" height="406" fill="none" viewBox="0 0 498 406"><path fill="#353535" d="M482.4 405.1H15C6.7 405.1 0 398.4 0 390.1C0 381.8 6.7 375.1 15 375.1H482.4C490.7 375.1 497.4 381.8 497.4 390.1C497.4 398.4 490.7 405.1 482.4 405.1Z" opacity=".34"/><path fill="#F7E4CB" d="M341 343.8H105C95.1 343.8 87 335.7 87 325.8V21C87 11.1 95.1 3 105 3H341C350.9 3 359 11.1 359 21V325.8C359 335.7 350.9 343.8 341 343.8Z"/><path fill="#E0C5AA" d="M341 343.8H105C95.1 343.8 87 335.7 87 325.8V21C87 11.1 95.1 3 105 3H341C350.9 3 359 11.1 359 21V325.8C359 335.7 350.9 343.8 341 343.8Z"/><path fill="#F7E4CB" d="M99 311V30.9998C99 25.2998 103.6 20.7998 109.2 20.7998H336.7C342.4 20.7998 346.9 25.3998 346.9 30.9998V311C346.9 316.7 342.3 321.2 336.7 321.2H109.3C103.6 321.3 99 316.7 99 311Z"/><path stroke="#353535" stroke-linecap="round" stroke-linejoin="round" stroke-miterlimit="10" stroke-width="6" d="M341 343.8H105C95.1 343.8 87 335.7 87 325.8V21C87 11.1 95.1 3 105 3H341C350.9 3 359 11.1 359 21V325.8C359 335.7 350.9 343.8 341 343.8Z"/><path fill="#E0C5AA" d="M123.7 219.8C118.3 219.8 114 215.5 114 210.1V47.4998C114 42.0998 118.3 37.7998 123.7 37.7998H322.3C327.7 37.7998 332 42.0998 332 47.4998V210.1C332 215.5 327.7 219.8 322.3 219.8H123.7Z"/><path fill="#353535" d="M141.7 209.2C132.2 209.2 124.5 201.5 124.5 192V65.4998C124.5 55.9998 132.2 48.2998 141.7 48.2998H304.3C313.8 48.2998 321.5 55.9998 321.5 65.4998V191.9C321.5 201.4 313.8 209.1 304.3 209.1H141.7V209.2Z"/><path fill="#282828" d="M304.3 48.2998H284.1C287.6 55.5998 289.6 63.7998 289.6 72.4998C289.6 130.3 242.7 177.2 184.9 177.2H148.7C140 177.2 131.8 175.2 124.5 171.7V191.9C124.5 201.4 132.2 209.1 141.7 209.1H304.3C313.8 209.1 321.5 201.4 321.5 191.9V65.4998C321.6 55.9998 313.9 48.2998 304.3 48.2998Z" opacity=".3"/><path fill="#E0C5AA" d="M293.5 260.8V257.7H224.8V245.7H293.5V242.6C293.5 241.6 294.3 240.7 295.4 240.7H331.6C332.6 240.7 333.5 241.5 333.5 242.6V260.8C333.5 261.8 332.7 262.7 331.6 262.7H295.4C294.3 262.7 293.5 261.9 293.5 260.8Z"/><path fill="#353535" d="M328.3 248.7H324V254.7H328.3V248.7Z"/><path stroke="#353535" stroke-linecap="round" stroke-linejoin="round" stroke-miterlimit="10" stroke-width="2" d="M142.1 297H122.7C121.7 297 120.8 296.2 120.8 295.1V275.7C120.8 274.7 121.6 273.8 122.7 273.8H142.1C143.1 273.8 144 274.6 144 275.7V295.1C144 296.1 143.2 297 142.1 297Z"/><path fill="#F2EBE1" d="M387.7 390.1C387.7 380.2 398.2 372.1 411.2 372.1C424.2 372.1 434.7 380.2 434.7 390.1H387.7Z"/><path stroke="#353535" stroke-linecap="round" stroke-linejoin="round" stroke-miterlimit="10" stroke-width="6" d="M387.7 390.1C387.7 380.2 398.2 372.1 411.2 372.1C424.2 372.1 434.7 380.2 434.7 390.1H387.7Z"/><path fill="#E0C5AA" d="M342 345H104V369H342V345Z"/><path fill="#C6A485" d="M342 345H104V354.9H342V345Z"/><path stroke="#353535" stroke-linecap="round" stroke-linejoin="round" stroke-miterlimit="10" stroke-width="6" d="M342 345H104V369H342V345Z"/><path fill="#E0C5AA" d="M299 360.1H147V372.1H299V360.1Z"/><path fill="#E0C5AA" d="M357 360.1H337V372.1H357V360.1Z"/><path fill="#E0C5AA" d="M328 360.1H308V372.1H328V360.1Z"/><path fill="#E0C5AA" d="M138 360.1H118V372.1H138V360.1Z"/><path fill="#E0C5AA" d="M109 360.1H89V372.1H109V360.1Z"/><path fill="#F7E4CB" d="M377.1 372.1H68.7998V390.1H377.1V372.1Z"/><path stroke="#353535" stroke-linecap="round" stroke-linejoin="round" stroke-miterlimit="10" stroke-width="6" d="M377.1 372.1H68.7998V390.1H377.1V372.1Z"/><path stroke="#353535" stroke-linecap="round" stroke-linejoin="round" stroke-miterlimit="10" stroke-width="6" d="M299 360.1H147V372.1H299V360.1Z"/><path stroke="#353535" stroke-linecap="round" stroke-linejoin="round" stroke-miterlimit="10" stroke-width="6" d="M357 360.1H337V372.1H357V360.1Z"/><path stroke="#353535" stroke-linecap="round" stroke-linejoin="round" stroke-miterlimit="10" stroke-width="6" d="M328 360.1H308V372.1H328V360.1Z"/><path stroke="#353535" stroke-linecap="round" stroke-linejoin="round" stroke-miterlimit="10" stroke-width="6" d="M138 360.1H118V372.1H138V360.1Z"/><path stroke="#353535" stroke-linecap="round" stroke-linejoin="round" stroke-miterlimit="10" stroke-width="6" d="M109 360.1H89V372.1H109V360.1Z"/><path fill="#CF9742" d="M134.6 283.6C133.7 282.8 133.1 281.7 132.8 280.5H126.5C125.8 281.4 125.2 282.5 124.9 283.6H134.6Z"/><path fill="#6E9546" d="M132.6 279.2C132.6 278.7 132.7 278.1 132.8 277.7C132.7 277.7 132.5 277.7 132.4 277.7C130 277.7 127.9 278.8 126.5 280.5H132.8C132.7 280 132.6 279.6 132.6 279.2Z"/><path fill="#7C4D83" d="M126.5 290.4H138.3C139.1 289.5 139.6 288.4 139.9 287.3H124.9C125.2 288.4 125.8 289.5 126.5 290.4Z"/><path fill="#4D8DB9" d="M132.4 293.1C134.8 293.1 136.9 292 138.3 290.4H126.5C128 292.1 130.1 293.1 132.4 293.1Z"/><path fill="#CB6757" d="M124.7 285.4C124.7 286 124.8 286.7 124.9 287.3H139.9C140 286.7 140.1 286.1 140.1 285.4C140.1 285.3 140.1 285.1 140.1 285C139.6 285.1 139.1 285.2 138.6 285.2C137 285.2 135.6 284.6 134.6 283.6H125C124.8 284.2 124.7 284.8 124.7 285.4Z"/><path stroke="#fff" stroke-linecap="round" stroke-linejoin="round" stroke-miterlimit="10" stroke-width="8" d="M152.5 69.2998H168.6"/><path stroke="#fff" stroke-linecap="round" stroke-linejoin="round" stroke-miterlimit="10" stroke-width="8" d="M185.3 69.2998H242.7"/><path fill="#353535" d="M328.3 250.7H296.9V245.9C296.9 244.9 297.7 244 298.8 244H326.4C327.4 244 328.3 244.8 328.3 245.9V250.7Z"/><path fill="#353535" d="M326.4 259.4H298.8C297.8 259.4 296.9 258.6 296.9 257.5V251.7H328.3V257.5C328.3 258.5 327.4 259.4 326.4 259.4Z"/><path fill="#282828" d="M324.4 254.7H229.8C229.3 254.7 228.8 254.3 228.8 253.7V249.6C228.8 249.1 229.2 248.6 229.8 248.6H324.4C324.9 248.6 325.4 249 325.4 249.6V253.7C325.3 254.3 324.9 254.7 324.4 254.7Z"/><path fill="#71E300" d="M174.592 125.96C174.592 126.899 174.315 127.645 173.76 128.2C173.205 128.733 172.395 129 171.328 129C171.051 129 170.773 128.968 170.496 128.904C170.219 128.84 169.92 128.723 169.6 128.552C169.301 128.381 169.035 128.221 168.8 128.072C168.565 127.923 168.267 127.699 167.904 127.4C167.563 127.08 167.285 126.835 167.072 126.664C166.88 126.472 166.571 126.173 166.144 125.768C165.717 125.363 165.408 125.064 165.216 124.872L159.36 119.336V126.28C159.36 127.325 159.157 128.04 158.752 128.424C158.368 128.808 157.749 129 156.896 129C155.957 129 155.264 128.787 154.816 128.36C154.368 127.933 154.144 127.219 154.144 126.216V110.76C154.144 109.544 154.453 108.627 155.072 108.008C155.691 107.389 156.576 107.08 157.728 107.08C158.517 107.08 159.147 107.208 159.616 107.464C160.107 107.699 160.683 108.136 161.344 108.776L169.44 116.84V109.864C169.44 108.947 169.664 108.264 170.112 107.816C170.581 107.347 171.211 107.112 172 107.112C172.917 107.112 173.579 107.325 173.984 107.752C174.389 108.179 174.592 108.872 174.592 109.832V125.96ZM189.145 124.52C189.871 124.52 190.489 124.2 191.001 123.56C191.535 122.92 191.908 122.131 192.121 121.192C192.356 120.253 192.473 119.251 192.473 118.184C192.473 117.096 192.356 116.072 192.121 115.112C191.887 114.131 191.503 113.299 190.969 112.616C190.457 111.933 189.849 111.592 189.145 111.592C188.463 111.592 187.865 111.933 187.353 112.616C186.841 113.299 186.457 114.131 186.201 115.112C185.945 116.093 185.817 117.117 185.817 118.184C185.817 119.251 185.935 120.253 186.169 121.192C186.425 122.131 186.809 122.92 187.321 123.56C187.855 124.2 188.463 124.52 189.145 124.52ZM194.809 127.944C193.124 128.776 191.225 129.192 189.113 129.192C187.023 129.192 185.135 128.776 183.449 127.944C181.785 127.091 180.452 125.821 179.449 124.136C178.447 122.451 177.945 120.467 177.945 118.184C177.945 114.728 178.98 111.987 181.049 109.96C183.14 107.912 185.839 106.888 189.145 106.888C192.452 106.888 195.151 107.912 197.241 109.96C199.332 111.987 200.377 114.728 200.377 118.184C200.377 120.467 199.865 122.451 198.841 124.136C197.839 125.821 196.495 127.091 194.809 127.944ZM215.525 124.2C215.525 125.416 215.376 126.387 215.077 127.112C214.779 127.816 214.363 128.307 213.829 128.584C213.317 128.861 212.635 129 211.781 129C210.523 129 209.605 128.669 209.029 128.008C208.475 127.325 208.187 126.131 208.165 124.424L208.101 112.616H205.381C204.037 112.616 203.024 112.403 202.341 111.976C201.68 111.549 201.349 110.792 201.349 109.704C201.349 109.043 201.477 108.52 201.733 108.136C202.011 107.752 202.416 107.485 202.949 107.336C203.483 107.165 204.197 107.08 205.093 107.08H218.789C219.984 107.08 220.848 107.293 221.381 107.72C221.915 108.147 222.181 108.883 222.181 109.928C222.181 110.632 222.021 111.187 221.701 111.592C221.403 111.976 220.997 112.243 220.485 112.392C219.973 112.541 219.312 112.616 218.501 112.616H215.525V124.2ZM161.344 159.552C161.344 161.003 161.024 162.112 160.384 162.88C159.744 163.627 158.816 164 157.6 164C156.448 164 155.552 163.659 154.912 162.976C154.272 162.272 153.952 161.088 153.952 159.424V145.92C153.952 145.237 154.037 144.651 154.208 144.16C154.4 143.648 154.667 143.243 155.008 142.944C155.349 142.645 155.733 142.432 156.16 142.304C156.587 142.155 157.067 142.08 157.6 142.08H168.096C169.333 142.08 170.251 142.272 170.848 142.656C171.467 143.04 171.776 143.733 171.776 144.736C171.776 145.675 171.509 146.336 170.976 146.72C170.464 147.083 169.611 147.264 168.416 147.264H161.344V151.008H166.976C167.552 151.008 168.032 151.051 168.416 151.136C168.821 151.221 169.141 151.371 169.376 151.584C169.632 151.776 169.803 152.021 169.888 152.32C169.995 152.597 170.048 152.96 170.048 153.408C170.048 154.133 169.781 154.656 169.248 154.976C168.715 155.275 167.861 155.424 166.688 155.424H161.344V159.552ZM184.864 159.52C185.589 159.52 186.208 159.2 186.72 158.56C187.253 157.92 187.627 157.131 187.84 156.192C188.075 155.253 188.192 154.251 188.192 153.184C188.192 152.096 188.075 151.072 187.84 150.112C187.605 149.131 187.221 148.299 186.688 147.616C186.176 146.933 185.568 146.592 184.864 146.592C184.181 146.592 183.584 146.933 183.072 147.616C182.56 148.299 182.176 149.131 181.92 150.112C181.664 151.093 181.536 152.117 181.536 153.184C181.536 154.251 181.653 155.253 181.888 156.192C182.144 157.131 182.528 157.92 183.04 158.56C183.573 159.2 184.181 159.52 184.864 159.52ZM190.528 162.944C188.843 163.776 186.944 164.192 184.832 164.192C182.741 164.192 180.853 163.776 179.168 162.944C177.504 162.091 176.171 160.821 175.168 159.136C174.165 157.451 173.664 155.467 173.664 153.184C173.664 149.728 174.699 146.987 176.768 144.96C178.859 142.912 181.557 141.888 184.864 141.888C188.171 141.888 190.869 142.912 192.96 144.96C195.051 146.987 196.096 149.728 196.096 153.184C196.096 155.467 195.584 157.451 194.56 159.136C193.557 160.821 192.213 162.091 190.528 162.944ZM219.318 145.92V155.456C219.318 158.571 218.561 160.811 217.046 162.176C215.553 163.52 213.025 164.192 209.462 164.192C206.07 164.192 203.574 163.467 201.974 162.016C200.395 160.565 199.606 158.379 199.606 155.456V145.92C199.606 144.789 199.937 143.872 200.598 143.168C201.281 142.443 202.134 142.08 203.158 142.08C204.417 142.08 205.366 142.315 206.006 142.784C206.667 143.253 206.998 144.203 206.998 145.632V156.064C207.019 156.747 207.126 157.291 207.318 157.696C207.531 158.101 207.809 158.389 208.15 158.56C208.491 158.709 208.929 158.784 209.462 158.784C209.995 158.784 210.433 158.72 210.774 158.592C211.115 158.464 211.361 158.261 211.51 157.984C211.681 157.707 211.787 157.429 211.83 157.152C211.894 156.875 211.926 156.512 211.926 156.064V145.6C211.926 144.875 212.011 144.267 212.182 143.776C212.374 143.285 212.651 142.923 213.014 142.688C213.398 142.453 213.782 142.293 214.166 142.208C214.571 142.123 215.051 142.08 215.606 142.08C216.843 142.08 217.771 142.379 218.39 142.976C219.009 143.573 219.318 144.555 219.318 145.92ZM243.936 160.96C243.936 161.899 243.658 162.645 243.104 163.2C242.549 163.733 241.738 164 240.672 164C240.394 164 240.117 163.968 239.84 163.904C239.562 163.84 239.264 163.723 238.944 163.552C238.645 163.381 238.378 163.221 238.144 163.072C237.909 162.923 237.61 162.699 237.248 162.4C236.906 162.08 236.629 161.835 236.416 161.664C236.224 161.472 235.914 161.173 235.488 160.768C235.061 160.363 234.752 160.064 234.56 159.872L228.704 154.336V161.28C228.704 162.325 228.501 163.04 228.096 163.424C227.712 163.808 227.093 164 226.24 164C225.301 164 224.608 163.787 224.16 163.36C223.712 162.933 223.488 162.219 223.488 161.216V145.76C223.488 144.544 223.797 143.627 224.416 143.008C225.034 142.389 225.92 142.08 227.072 142.08C227.861 142.08 228.49 142.208 228.96 142.464C229.45 142.699 230.026 143.136 230.688 143.776L238.784 151.84V144.864C238.784 143.947 239.008 143.264 239.456 142.816C239.925 142.347 240.554 142.112 241.344 142.112C242.261 142.112 242.922 142.325 243.328 142.752C243.733 143.179 243.936 143.872 243.936 144.832V160.96ZM255.662 159.648C256.216 159.648 256.696 159.595 257.102 159.488C257.528 159.36 257.923 159.147 258.286 158.848C258.67 158.528 258.979 158.112 259.214 157.6C259.448 157.088 259.63 156.437 259.758 155.648C259.907 154.837 259.982 153.888 259.982 152.8C259.982 151.584 259.875 150.56 259.662 149.728C259.448 148.875 259.139 148.235 258.734 147.808C258.328 147.36 257.88 147.051 257.39 146.88C256.92 146.688 256.344 146.581 255.662 146.56V159.648ZM256.622 142.112C259.95 142.112 262.616 143.072 264.622 144.992C266.648 146.912 267.662 149.557 267.662 152.928C267.662 154.016 267.555 155.072 267.342 156.096C267.15 157.12 266.819 158.123 266.35 159.104C265.88 160.064 265.294 160.907 264.59 161.632C263.886 162.336 262.99 162.912 261.902 163.36C260.814 163.787 259.587 164 258.222 164H251.918C250.616 164 249.678 163.669 249.102 163.008C248.547 162.347 248.27 161.152 248.27 159.424V145.92C248.27 143.381 249.486 142.112 251.918 142.112H256.622Z"/></svg>