<svg width="496" height="626" viewBox="0 0 496 626" fill="none" xmlns="http://www.w3.org/2000/svg">
<path d="M249.2 626C300.287 626 341.7 618.299 341.7 608.8C341.7 599.301 300.287 591.6 249.2 591.6C198.114 591.6 156.7 599.301 156.7 608.8C156.7 618.299 198.114 626 249.2 626Z" fill="#430B48"/>
<path d="M220.2 492.3C196.7 492.3 177.7 509.7 177.7 531.3V532.7C177.7 574.8 209 608.8 247.6 608.8C286.2 608.8 317.5 574.7 317.5 532.7V531.3C317.5 509.8 298.5 492.3 275 492.3H220.2Z" fill="#E0E0E0"/>
<path d="M247.7 519.7C274.928 519.7 297 513.567 297 506C297 498.434 274.928 492.3 247.7 492.3C220.473 492.3 198.4 498.434 198.4 506C198.4 513.567 220.473 519.7 247.7 519.7Z" fill="#CFC3D8"/>
<path d="M247.7 514.9C268.024 514.9 284.5 510.333 284.5 504.7C284.5 499.067 268.024 494.5 247.7 494.5C227.376 494.5 210.9 499.067 210.9 504.7C210.9 510.333 227.376 514.9 247.7 514.9Z" fill="#430B48"/>
<path d="M247.7 576.7C212.8 576.7 183.9 559.9 178.6 523.5C178 526 177.7 528.6 177.7 531.3V532.7C177.7 574.8 209 608.8 247.6 608.8C286.2 608.8 317.5 574.7 317.5 532.7V531.3C317.5 528.6 317.2 526 316.6 523.5C311.5 559.9 282.6 576.7 247.7 576.7Z" fill="#CFC3D8"/>
<path d="M220.2 492.3C196.7 492.3 177.7 509.7 177.7 531.3V532.7C177.7 574.8 209 608.8 247.6 608.8C286.2 608.8 317.5 574.7 317.5 532.7V531.3C317.5 509.8 298.5 492.3 275 492.3H220.2Z" stroke="#430B48" stroke-width="8" stroke-miterlimit="10" stroke-linecap="round" stroke-linejoin="round"/>
<path d="M357.5 117.1H393.5" stroke="#430B48" stroke-width="8" stroke-miterlimit="10" stroke-linecap="round" stroke-linejoin="round"/>
<path d="M409.5 133.1C418.337 133.1 425.5 125.937 425.5 117.1C425.5 108.264 418.337 101.1 409.5 101.1C400.663 101.1 393.5 108.264 393.5 117.1C393.5 125.937 400.663 133.1 409.5 133.1Z" fill="#BFB0CC"/>
<path d="M409.5 133.1C418.337 133.1 425.5 125.937 425.5 117.1C425.5 108.264 418.337 101.1 409.5 101.1C400.663 101.1 393.5 108.264 393.5 117.1C393.5 125.937 400.663 133.1 409.5 133.1Z" stroke="#430B48" stroke-width="8" stroke-miterlimit="10" stroke-linecap="round" stroke-linejoin="round"/>
<path d="M371 354.5C370.1 347 370.4 339.5 371.8 332.1C372.7 328.3 376.8 325.3 380.4 325.5C384.1 325.6 387.9 328.8 388.6 332.7C389.5 340.2 389.2 347.7 387.8 355.1C386.9 358.9 382.8 361.9 379.2 361.7C375.5 361.6 371.6 358.4 371 354.5Z" fill="#4B1151"/>
<path d="M392.3 354.1C389.8 347.2 388.2 339.9 388 332.5C387.9 328.7 391.2 324.9 394.8 324.2C398.4 323.5 402.8 325.7 404.2 329.3C406.9 336.2 408.3 343.5 408.5 350.9C408.6 354.7 405.3 358.5 401.7 359.2C398.2 359.9 393.8 357.7 392.3 354.1Z" fill="#430B48"/>
<path d="M412.6 349C408.6 343 405.4 336.4 403.5 329.4C402.5 325.8 404.8 321.4 408 320C411.4 318.5 416 319.5 418.1 322.6C422.2 328.5 425.3 335.2 427.2 342.2C428.2 345.8 425.9 350.2 422.7 351.6C419.5 353.1 414.8 352 412.6 349Z" fill="#4B1151"/>
<path d="M430.8 339.5C425.6 334.7 421.1 329.1 417.7 322.9C415.9 319.6 417.2 315 419.9 312.9C422.9 310.6 427.4 310.7 430.2 313.1C435.5 317.8 439.9 323.5 443.3 329.7C445.1 333 443.8 337.6 441.1 339.7C438.3 341.9 433.6 341.9 430.8 339.5Z" fill="#4B1151"/>
<path d="M446.3 326.3C440.3 322.9 434.7 318.6 430.1 313.4C427.7 310.7 427.8 306 429.9 303.4C432.3 300.5 436.5 299.6 439.7 301.3C445.8 304.6 451.3 309 455.9 314.2C458.3 316.9 458.2 321.6 456.1 324.2C454 326.9 449.5 328 446.3 326.3Z" fill="#4B1151"/>
<path d="M458.5 309.9C452 308 445.7 305.2 440.1 301.3C437.2 299.3 436.2 294.8 437.6 291.8C439.3 288.4 443 286.6 446.5 287.6C453.1 289.4 459.3 292.3 464.9 296.2C467.8 298.2 468.8 302.7 467.4 305.7C466 308.7 461.9 310.8 458.5 309.9Z" fill="#4B1151"/>
<path d="M466.7 290.9C460 290.6 453.4 289.5 447.2 287.1C444 285.9 442 281.8 442.6 278.6C443.5 274.8 446.6 272.4 450 272.5C456.7 272.6 463.3 273.9 469.5 276.3C472.7 277.5 474.7 281.6 474.1 284.8C473.6 287.9 470.2 290.9 466.7 290.9Z" fill="#4B1151"/>
<path d="M469.5 271.3C463 271.7 456.5 271.1 450.2 269.5C446.9 268.5 444.6 264.9 444.9 261.7C445.4 257.8 448.2 255.4 451.6 255C458.1 254.6 464.6 255.2 470.9 256.8C474.2 257.8 476.5 261.4 476.2 264.6C475.9 267.8 472.9 271 469.5 271.3Z" fill="#4B1151"/>
<path d="M371 354.5C370.1 347 370.4 339.5 371.8 332.1C372.7 328.3 376.8 325.3 380.4 325.5C384.1 325.6 387.9 328.8 388.6 332.7C389.5 340.2 389.2 347.7 387.8 355.1C386.9 358.9 382.8 361.9 379.2 361.7C375.5 361.6 371.6 358.4 371 354.5Z" stroke="#430B48" stroke-width="6" stroke-miterlimit="10" stroke-linecap="round" stroke-linejoin="round"/>
<path d="M392.3 354.1C389.8 347.2 388.2 339.9 388 332.5C387.9 328.7 391.2 324.9 394.8 324.2C398.4 323.5 402.8 325.7 404.2 329.3C406.9 336.2 408.3 343.5 408.5 350.9C408.6 354.7 405.3 358.5 401.7 359.2C398.2 359.9 393.8 357.7 392.3 354.1Z" stroke="#430B48" stroke-width="6" stroke-miterlimit="10" stroke-linecap="round" stroke-linejoin="round"/>
<path d="M412.6 349C408.6 343 405.4 336.4 403.5 329.4C402.5 325.8 404.8 321.4 408 320C411.4 318.5 416 319.5 418.1 322.6C422.2 328.5 425.3 335.2 427.2 342.2C428.2 345.8 425.9 350.2 422.7 351.6C419.5 353.1 414.8 352 412.6 349Z" stroke="#430B48" stroke-width="6" stroke-miterlimit="10" stroke-linecap="round" stroke-linejoin="round"/>
<path d="M430.8 339.5C425.6 334.7 421.1 329.1 417.7 322.9C415.9 319.6 417.2 315 419.9 312.9C422.9 310.6 427.4 310.7 430.2 313.1C435.5 317.8 439.9 323.5 443.3 329.7C445.1 333 443.8 337.6 441.1 339.7C438.3 341.9 433.6 341.9 430.8 339.5Z" stroke="#430B48" stroke-width="6" stroke-miterlimit="10" stroke-linecap="round" stroke-linejoin="round"/>
<path d="M446.3 326.3C440.3 322.9 434.7 318.6 430.1 313.4C427.7 310.7 427.8 306 429.9 303.4C432.3 300.5 436.5 299.6 439.7 301.3C445.8 304.6 451.3 309 455.9 314.2C458.3 316.9 458.2 321.6 456.1 324.2C454 326.9 449.5 328 446.3 326.3Z" stroke="#430B48" stroke-width="6" stroke-miterlimit="10" stroke-linecap="round" stroke-linejoin="round"/>
<path d="M458.5 309.9C452 308 445.7 305.2 440.1 301.3C437.2 299.3 436.2 294.8 437.6 291.8C439.3 288.4 443 286.6 446.5 287.6C453.1 289.4 459.3 292.3 464.9 296.2C467.8 298.2 468.8 302.7 467.4 305.7C466 308.7 461.9 310.8 458.5 309.9Z" stroke="#430B48" stroke-width="6" stroke-miterlimit="10" stroke-linecap="round" stroke-linejoin="round"/>
<path d="M466.7 290.9C460 290.6 453.4 289.5 447.2 287.1C444 285.9 442 281.8 442.6 278.6C443.5 274.8 446.6 272.4 450 272.5C456.7 272.6 463.3 273.9 469.5 276.3C472.7 277.5 474.7 281.6 474.1 284.8C473.6 287.9 470.2 290.9 466.7 290.9Z" stroke="#430B48" stroke-width="6" stroke-miterlimit="10" stroke-linecap="round" stroke-linejoin="round"/>
<path d="M469.5 271.3C463 271.7 456.5 271.1 450.2 269.5C446.9 268.5 444.6 264.9 444.9 261.7C445.4 257.8 448.2 255.4 451.6 255C458.1 254.6 464.6 255.2 470.9 256.8C474.2 257.8 476.5 261.4 476.2 264.6C475.9 267.8 472.9 271 469.5 271.3Z" stroke="#430B48" stroke-width="6" stroke-miterlimit="10" stroke-linecap="round" stroke-linejoin="round"/>
<path d="M471.8 203.7V223.2C471.8 228.5 467.5 232.8 462.2 232.8C456.9 232.8 452.6 228.5 452.6 223.2V210.4H433.3V226.8C433.3 242.8 446.2 255.7 462.2 255.7C478.2 255.7 491.1 242.8 491.1 226.8V203.7H471.8Z" fill="#CFC3D8"/>
<path d="M456.4 230.9C454.1 229.1 452.6 226.4 452.6 223.3V215C452.6 214.2 452.5 213.3 452.5 212.5C452.5 211.8 452.5 211.2 452.5 210.5H433.3V226.9C433.3 242.9 446.2 255.8 462.2 255.8C467.4 255.8 472.3 254.4 476.5 252C467.7 247.7 460.5 240.2 456.4 230.9Z" fill="#BFB0CC"/>
<path d="M471.8 203.7V223.2C471.8 228.5 467.5 232.8 462.2 232.8C456.9 232.8 452.6 228.5 452.6 223.2V210.4H433.3V226.8C433.3 242.8 446.2 255.7 462.2 255.7C478.2 255.7 491.1 242.8 491.1 226.8V203.7H471.8V203.7Z" stroke="#430B48" stroke-width="8" stroke-miterlimit="10" stroke-linecap="round" stroke-linejoin="round"/>
<path d="M124.4 354.5C125.3 347 125 339.5 123.6 332.1C122.7 328.3 118.6 325.3 115 325.5C111.3 325.6 107.5 328.8 106.8 332.7C105.9 340.2 106.2 347.7 107.6 355.1C108.5 358.9 112.6 361.9 116.2 361.7C119.9 361.6 123.8 358.4 124.4 354.5Z" fill="#4B1151"/>
<path d="M103 354.1C105.5 347.2 107.1 339.9 107.3 332.5C107.4 328.7 104.1 324.9 100.5 324.2C96.9001 323.5 92.5001 325.7 91.1001 329.3C88.4001 336.2 87.0001 343.5 86.8001 350.9C86.7001 354.7 90.0001 358.5 93.6001 359.2C97.2001 359.9 101.6 357.7 103 354.1Z" fill="#430B48"/>
<path d="M82.8002 349C86.8002 343 90.0002 336.4 91.9002 329.4C92.9002 325.8 90.6002 321.4 87.4002 320C84.0002 318.5 79.4002 319.5 77.3002 322.6C73.2002 328.5 70.1003 335.2 68.2003 342.2C67.2003 345.8 69.5003 350.2 72.7003 351.6C75.8003 353.1 80.6002 352 82.8002 349Z" fill="#4B1151"/>
<path d="M64.6 339.5C69.8 334.7 74.3 329.1 77.7 322.9C79.5 319.6 78.2 315 75.5 312.9C72.5 310.6 68 310.7 65.2 313.1C59.9 317.8 55.5 323.5 52.1 329.7C50.3 333 51.6 337.6 54.3 339.7C57 341.9 61.8 341.9 64.6 339.5Z" fill="#4B1151"/>
<path d="M49.1001 326.3C55.1001 322.9 60.7001 318.6 65.3001 313.4C67.7001 310.7 67.6001 306 65.5001 303.4C63.1001 300.5 58.9001 299.6 55.7001 301.3C49.6001 304.6 44.1001 309 39.5001 314.2C37.1001 316.9 37.2001 321.6 39.3001 324.2C41.4001 326.9 45.9001 328 49.1001 326.3Z" fill="#4B1151"/>
<path d="M36.9 309.9C43.4 308 49.7 305.2 55.3 301.3C58.2 299.3 59.2 294.8 57.8 291.8C56.1 288.4 52.4 286.6 48.9 287.6C42.3 289.4 36.1 292.3 30.5 296.2C27.6 298.2 26.6 302.7 28 305.7C29.4 308.7 33.4 310.8 36.9 309.9Z" fill="#4B1151"/>
<path d="M28.5998 290.9C35.2998 290.6 41.8998 289.5 48.0998 287.1C51.2998 285.9 53.2999 281.8 52.6999 278.6C51.7999 274.8 48.6998 272.4 45.2998 272.5C38.5998 272.6 31.9998 273.9 25.7998 276.3C22.5998 277.5 20.5999 281.6 21.1999 284.8C21.7999 287.9 25.1998 290.9 28.5998 290.9Z" fill="#4B1151"/>
<path d="M25.8 271.3C32.3 271.7 38.8 271.1 45.1 269.5C48.4 268.5 50.7 264.9 50.4 261.7C49.9 257.8 47.1 255.4 43.7 255C37.2 254.6 30.7 255.2 24.4 256.8C21.1 257.8 18.8 261.4 19.1 264.6C19.5 267.8 22.4 271 25.8 271.3Z" fill="#4B1151"/>
<path d="M124.4 354.5C125.3 347 125 339.5 123.6 332.1C122.7 328.3 118.6 325.3 115 325.5C111.3 325.6 107.5 328.8 106.8 332.7C105.9 340.2 106.2 347.7 107.6 355.1C108.5 358.9 112.6 361.9 116.2 361.7C119.9 361.6 123.8 358.4 124.4 354.5Z" stroke="#430B48" stroke-width="6" stroke-miterlimit="10" stroke-linecap="round" stroke-linejoin="round"/>
<path d="M103 354.1C105.5 347.2 107.1 339.9 107.3 332.5C107.4 328.7 104.1 324.9 100.5 324.2C96.9001 323.5 92.5001 325.7 91.1001 329.3C88.4001 336.2 87.0001 343.5 86.8001 350.9C86.7001 354.7 90.0001 358.5 93.6001 359.2C97.2001 359.9 101.6 357.7 103 354.1Z" stroke="#430B48" stroke-width="6" stroke-miterlimit="10" stroke-linecap="round" stroke-linejoin="round"/>
<path d="M82.8002 349C86.8002 343 90.0002 336.4 91.9002 329.4C92.9002 325.8 90.6002 321.4 87.4002 320C84.0002 318.5 79.4002 319.5 77.3002 322.6C73.2002 328.5 70.1003 335.2 68.2003 342.2C67.2003 345.8 69.5003 350.2 72.7003 351.6C75.8003 353.1 80.6002 352 82.8002 349Z" stroke="#430B48" stroke-width="6" stroke-miterlimit="10" stroke-linecap="round" stroke-linejoin="round"/>
<path d="M64.6 339.5C69.8 334.7 74.3 329.1 77.7 322.9C79.5 319.6 78.2 315 75.5 312.9C72.5 310.6 68 310.7 65.2 313.1C59.9 317.8 55.5 323.5 52.1 329.7C50.3 333 51.6 337.6 54.3 339.7C57 341.9 61.8 341.9 64.6 339.5Z" stroke="#430B48" stroke-width="6" stroke-miterlimit="10" stroke-linecap="round" stroke-linejoin="round"/>
<path d="M49.1001 326.3C55.1001 322.9 60.7001 318.6 65.3001 313.4C67.7001 310.7 67.6001 306 65.5001 303.4C63.1001 300.5 58.9001 299.6 55.7001 301.3C49.6001 304.6 44.1001 309 39.5001 314.2C37.1001 316.9 37.2001 321.6 39.3001 324.2C41.4001 326.9 45.9001 328 49.1001 326.3Z" stroke="#430B48" stroke-width="6" stroke-miterlimit="10" stroke-linecap="round" stroke-linejoin="round"/>
<path d="M36.9 309.9C43.4 308 49.7 305.2 55.3 301.3C58.2 299.3 59.2 294.8 57.8 291.8C56.1 288.4 52.4 286.6 48.9 287.6C42.3 289.4 36.1 292.3 30.5 296.2C27.6 298.2 26.6 302.7 28 305.7C29.4 308.7 33.4 310.8 36.9 309.9Z" stroke="#430B48" stroke-width="6" stroke-miterlimit="10" stroke-linecap="round" stroke-linejoin="round"/>
<path d="M28.5998 290.9C35.2998 290.6 41.8998 289.5 48.0998 287.1C51.2998 285.9 53.2999 281.8 52.6999 278.6C51.7999 274.8 48.6998 272.4 45.2998 272.5C38.5998 272.6 31.9998 273.9 25.7998 276.3C22.5998 277.5 20.5999 281.6 21.1999 284.8C21.7999 287.9 25.1998 290.9 28.5998 290.9Z" stroke="#430B48" stroke-width="6" stroke-miterlimit="10" stroke-linecap="round" stroke-linejoin="round"/>
<path d="M25.8 271.3C32.3 271.7 38.8 271.1 45.1 269.5C48.4 268.5 50.7 264.9 50.4 261.7C49.9 257.8 47.1 255.4 43.7 255C37.2 254.6 30.7 255.2 24.4 256.8C21.1 257.8 18.8 261.4 19.1 264.6C19.5 267.8 22.4 271 25.8 271.3Z" stroke="#430B48" stroke-width="6" stroke-miterlimit="10" stroke-linecap="round" stroke-linejoin="round"/>
<path d="M23.5002 203.7V223.2C23.5002 228.5 27.8002 232.8 33.1002 232.8C38.4002 232.8 42.7002 228.5 42.7002 223.2V210.4H62.0002V226.8C62.0002 242.8 49.1002 255.7 33.1002 255.7C17.1002 255.7 4.2002 242.8 4.2002 226.8V203.7H23.5002Z" fill="#CFC3D8"/>
<path d="M39.0004 230.9C41.3004 229.1 42.8004 226.4 42.8004 223.3V215C42.8004 214.2 42.9004 213.3 42.9004 212.5C42.9004 211.8 42.9004 211.2 42.9004 210.5H62.1004V226.9C62.1004 242.9 49.2004 255.8 33.2004 255.8C28.0004 255.8 23.1004 254.4 18.9004 252C27.7004 247.7 34.9004 240.2 39.0004 230.9Z" fill="#BFB0CC"/>
<path d="M23.5002 203.7V223.2C23.5002 228.5 27.8002 232.8 33.1002 232.8C38.4002 232.8 42.7002 228.5 42.7002 223.2V210.4H62.0002V226.8C62.0002 242.8 49.1002 255.7 33.1002 255.7C17.1002 255.7 4.2002 242.8 4.2002 226.8V203.7H23.5002V203.7Z" stroke="#430B48" stroke-width="8" stroke-miterlimit="10" stroke-linecap="round" stroke-linejoin="round"/>
<path d="M353.7 158.1H337.7V76.1001H353.7C358.1 76.1001 361.7 79.7001 361.7 84.1001V150.1C361.7 154.6 358.1 158.1 353.7 158.1Z" fill="#BFB0CC"/>
<path d="M353.7 76.1001H337.7V87.1001H353.7C358.1 87.1001 361.7 90.7001 361.7 95.1001V84.1001C361.7 79.7001 358.1 76.1001 353.7 76.1001Z" fill="white"/>
<path d="M353.7 158.1H337.7V76.1001H353.7C358.1 76.1001 361.7 79.7001 361.7 84.1001V150.1C361.7 154.6 358.1 158.1 353.7 158.1Z" stroke="#430B48" stroke-width="8" stroke-miterlimit="10" stroke-linecap="round" stroke-linejoin="round"/>
<path d="M137.9 117.1H101.9" stroke="#430B48" stroke-width="8" stroke-miterlimit="10" stroke-linecap="round" stroke-linejoin="round"/>
<path d="M85.9004 133.1C94.7369 133.1 101.9 125.937 101.9 117.1C101.9 108.264 94.7369 101.1 85.9004 101.1C77.0638 101.1 69.9004 108.264 69.9004 117.1C69.9004 125.937 77.0638 133.1 85.9004 133.1Z" fill="#BFB0CC"/>
<path d="M85.9004 133.1C94.7369 133.1 101.9 125.937 101.9 117.1C101.9 108.264 94.7369 101.1 85.9004 101.1C77.0638 101.1 69.9004 108.264 69.9004 117.1C69.9004 125.937 77.0638 133.1 85.9004 133.1Z" stroke="#430B48" stroke-width="8" stroke-miterlimit="10" stroke-linecap="round" stroke-linejoin="round"/>
<path d="M141.7 158.1H157.7V76.1001H141.7C137.3 76.1001 133.7 79.7001 133.7 84.1001V150.1C133.7 154.6 137.3 158.1 141.7 158.1Z" fill="#BFB0CC"/>
<path d="M141.7 76.1001C137.3 76.1001 133.7 79.7001 133.7 84.1001V95.1001C133.7 90.7001 137.3 87.1001 141.7 87.1001H157.7V76.1001H141.7Z" fill="#E6EEF1"/>
<path d="M141.7 158.1H157.7V76.1001H141.7C137.3 76.1001 133.7 79.7001 133.7 84.1001V150.1C133.7 154.6 137.3 158.1 141.7 158.1Z" stroke="#430B48" stroke-width="8" stroke-miterlimit="10" stroke-linecap="round" stroke-linejoin="round"/>
<path d="M353.7 158.1H337.7V76.1001H353.7C358.1 76.1001 361.7 79.7001 361.7 84.1001V150.1C361.7 154.6 358.1 158.1 353.7 158.1Z" stroke="#430B48" stroke-width="8" stroke-miterlimit="10" stroke-linecap="round" stroke-linejoin="round"/>
<path d="M141.7 158.1H157.7V76.1001H141.7C137.3 76.1001 133.7 79.7001 133.7 84.1001V150.1C133.7 154.6 137.3 158.1 141.7 158.1Z" stroke="#430B48" stroke-width="8" stroke-miterlimit="10" stroke-linecap="round" stroke-linejoin="round"/>
<path d="M301.7 211.1H193.7C171.6 211.1 153.7 193.2 153.7 171.1V63.1001C153.7 41.0001 171.6 23.1001 193.7 23.1001H301.7C323.8 23.1001 341.7 41.0001 341.7 63.1001V171.1C341.7 193.2 323.8 211.1 301.7 211.1Z" fill="#E0E0E0"/>
<path d="M301.7 211.1H193.7C171.6 211.1 153.7 193.2 153.7 171.1V63.1001C153.7 41.0001 171.6 23.1001 193.7 23.1001H301.7C323.8 23.1001 341.7 41.0001 341.7 63.1001V171.1C341.7 193.2 323.8 211.1 301.7 211.1Z" fill="#E0E0E0"/>
<path d="M301.7 211.1H193.7C171.6 211.1 153.7 193.2 153.7 171.1V63.1001C153.7 41.0001 171.6 23.1001 193.7 23.1001H301.7C323.8 23.1001 341.7 41.0001 341.7 63.1001V171.1C341.7 193.2 323.8 211.1 301.7 211.1Z" fill="#E0E0E0"/>
<path d="M301.7 23.1001H193.7C171.6 23.1001 153.7 41.0001 153.7 63.1001V73.0001C153.7 50.9001 171.6 33.0001 193.7 33.0001H301.7C323.8 33.0001 341.7 50.9001 341.7 73.0001V63.1001C341.7 41.0001 323.8 23.1001 301.7 23.1001Z" fill="white"/>
<path d="M301.7 194.7H193.7C171.6 194.7 153.7 181.7 153.7 159.6V171.1C153.7 193.2 171.6 211.1 193.7 211.1H301.7C323.8 211.1 341.7 193.2 341.7 171.1V159.6C341.7 181.8 323.8 194.7 301.7 194.7Z" fill="#BFB0CC"/>
<path d="M301.7 211.1H193.7C171.6 211.1 153.7 193.2 153.7 171.1V63.1001C153.7 41.0001 171.6 23.1001 193.7 23.1001H301.7C323.8 23.1001 341.7 41.0001 341.7 63.1001V171.1C341.7 193.2 323.8 211.1 301.7 211.1Z" stroke="#430B48" stroke-width="8" stroke-miterlimit="10" stroke-linecap="round" stroke-linejoin="round"/>
<path d="M247.7 45.1001C269.792 45.1001 287.7 35.2504 287.7 23.1001C287.7 10.9498 269.792 1.1001 247.7 1.1001C225.609 1.1001 207.7 10.9498 207.7 23.1001C207.7 35.2504 225.609 45.1001 247.7 45.1001Z" fill="#FEA74A"/>
<path d="M247.7 45.1001C269.792 45.1001 287.7 35.2504 287.7 23.1001C287.7 10.9498 269.792 1.1001 247.7 1.1001C225.609 1.1001 207.7 10.9498 207.7 23.1001C207.7 35.2504 225.609 45.1001 247.7 45.1001Z" fill="#BBC6CC"/>
<path d="M247.7 42.0002C269.792 42.0002 287.7 33.5384 287.7 23.1002C287.7 12.662 269.792 4.2002 247.7 4.2002C225.609 4.2002 207.7 12.662 207.7 23.1002C207.7 33.5384 225.609 42.0002 247.7 42.0002Z" fill="#E0E0E0"/>
<path d="M286.4 18.6001C283.4 29.1001 266.9 32.1001 246.9 32.1001C228.3 32.1001 212.7 30.2001 208.2 20.8001C207.9 21.9001 207.7 19.0001 207.7 20.2001C207.7 32.3001 225.6 42.1001 247.7 42.1001C269.8 42.1001 287.7 32.3001 287.7 20.2001C287.7 18.2001 287.2 20.3001 286.4 18.6001Z" fill="#BFB0CC"/>
<path d="M247.7 42.0002C269.792 42.0002 287.7 33.5384 287.7 23.1002C287.7 12.662 269.792 4.2002 247.7 4.2002C225.609 4.2002 207.7 12.662 207.7 23.1002C207.7 33.5384 225.609 42.0002 247.7 42.0002Z" stroke="#430B48" stroke-width="8" stroke-miterlimit="10" stroke-linecap="round" stroke-linejoin="round"/>
<path d="M247.7 158.4C270.951 158.4 289.8 139.551 289.8 116.3C289.8 93.049 270.951 74.2002 247.7 74.2002C224.449 74.2002 205.6 93.049 205.6 116.3C205.6 139.551 224.449 158.4 247.7 158.4Z" fill="#CFC3D8" stroke="#CFC3D8" stroke-width="8" stroke-miterlimit="10" stroke-linecap="round" stroke-linejoin="round"/>
<path d="M247.7 151.7C270.951 151.7 289.8 132.851 289.8 109.6C289.8 86.3488 270.951 67.5 247.7 67.5C224.449 67.5 205.6 86.3488 205.6 109.6C205.6 132.851 224.449 151.7 247.7 151.7Z" fill="#E6EEF1"/>
<path d="M247.7 151.7C270.951 151.7 289.8 132.851 289.8 109.6C289.8 86.3488 270.951 67.5 247.7 67.5C224.449 67.5 205.6 86.3488 205.6 109.6C205.6 132.851 224.449 151.7 247.7 151.7Z" stroke="#430B48" stroke-width="8" stroke-miterlimit="10" stroke-linecap="round" stroke-linejoin="round"/>
<path d="M246.9 139.9C258.443 139.9 267.8 130.543 267.8 119C267.8 107.457 258.443 98.1001 246.9 98.1001C235.357 98.1001 226 107.457 226 119C226 130.543 235.357 139.9 246.9 139.9Z" fill="#23B5E2"/>
<path d="M246.9 139.9C258.443 139.9 267.8 130.543 267.8 119C267.8 107.457 258.443 98.1001 246.9 98.1001C235.357 98.1001 226 107.457 226 119C226 130.543 235.357 139.9 246.9 139.9Z" stroke="#430B48" stroke-width="8" stroke-miterlimit="10" stroke-linecap="round" stroke-linejoin="round"/>
<path d="M246.9 130.1C253.031 130.1 258 125.13 258 119C258 112.87 253.031 107.9 246.9 107.9C240.77 107.9 235.8 112.87 235.8 119C235.8 125.13 240.77 130.1 246.9 130.1Z" fill="#430B48"/>
<path d="M291.9 178.7V186.7" stroke="#BBC6CC" stroke-width="8" stroke-miterlimit="10" stroke-linecap="round" stroke-linejoin="round"/>
<path d="M277.1 177.1V188.4" stroke="#BBC6CC" stroke-width="8" stroke-miterlimit="10" stroke-linecap="round" stroke-linejoin="round"/>
<path d="M262.4 175.4V190.1" stroke="#BBC6CC" stroke-width="8" stroke-miterlimit="10" stroke-linecap="round" stroke-linejoin="round"/>
<path d="M247.7 173.7V191.7" stroke="#BBC6CC" stroke-width="8" stroke-miterlimit="10" stroke-linecap="round" stroke-linejoin="round"/>
<path d="M203.5 178.7V186.7" stroke="#BBC6CC" stroke-width="8" stroke-miterlimit="10" stroke-linecap="round" stroke-linejoin="round"/>
<path d="M218.2 177.1V188.4" stroke="#BBC6CC" stroke-width="8" stroke-miterlimit="10" stroke-linecap="round" stroke-linejoin="round"/>
<path d="M233 175.4V190.1" stroke="#BBC6CC" stroke-width="8" stroke-miterlimit="10" stroke-linecap="round" stroke-linejoin="round"/>
<path d="M291.9 175.7V183.7" stroke="#430B48" stroke-width="8" stroke-miterlimit="10" stroke-linecap="round" stroke-linejoin="round"/>
<path d="M277.1 174.1V185.4" stroke="#430B48" stroke-width="8" stroke-miterlimit="10" stroke-linecap="round" stroke-linejoin="round"/>
<path d="M262.4 172.4V187.1" stroke="#430B48" stroke-width="8" stroke-miterlimit="10" stroke-linecap="round" stroke-linejoin="round"/>
<path d="M247.7 170.7V188.7" stroke="#430B48" stroke-width="8" stroke-miterlimit="10" stroke-linecap="round" stroke-linejoin="round"/>
<path d="M203.5 175.7V183.7" stroke="#430B48" stroke-width="8" stroke-miterlimit="10" stroke-linecap="round" stroke-linejoin="round"/>
<path d="M218.2 174.1V185.4" stroke="#430B48" stroke-width="8" stroke-miterlimit="10" stroke-linecap="round" stroke-linejoin="round"/>
<path d="M233 172.4V187.1" stroke="#430B48" stroke-width="8" stroke-miterlimit="10" stroke-linecap="round" stroke-linejoin="round"/>
<path d="M263.7 211.1H231.7V255.1H263.7V211.1Z" fill="#CFC3D8"/>
<path d="M263.7 211.1H231.7V227.5H263.7V211.1Z" fill="#430B48"/>
<path d="M263.7 211.1H231.7V255.1H263.7V211.1Z" stroke="#430B48" stroke-width="8" stroke-miterlimit="10" stroke-linecap="round" stroke-linejoin="round"/>
<path d="M383.3 362.2C364.9 412.2 333.9 456.1 294.2 490.1C267.5 513 227.9 513 201.2 490.1C161.5 456.1 130.5 412.2 112.1 362.2C97.6003 322.9 119.4 279.8 159.5 267.9C187.4 259.6 217 255.1 247.7 255.1C278.4 255.1 307.9 259.6 335.9 267.9C376 279.8 397.8 322.9 383.3 362.2Z" fill="#E0E0E0"/>
<path d="M383.3 362.2C364.9 412.2 333.9 456.1 294.2 490.1C267.5 513 227.9 513 201.2 490.1C161.5 456.1 130.5 412.2 112.1 362.2C97.6003 322.9 119.4 279.8 159.5 267.9C187.4 259.6 217 255.1 247.7 255.1C278.4 255.1 307.9 259.6 335.9 267.9C376 279.8 397.8 322.9 383.3 362.2Z" fill="#E0E0E0"/>
<path d="M159.5 275.9C187.4 267.6 217 263.1 247.7 263.1C278.4 263.1 307.9 267.6 335.9 275.9C366.2 284.9 386 311.6 387.7 341.1C389.5 308.6 368.9 277.7 335.9 267.9C308 259.6 278.4 255.1 247.7 255.1C217 255.1 187.5 259.6 159.5 267.9C126.5 277.7 105.9 308.6 107.7 341.1C109.4 311.7 129.2 284.9 159.5 275.9Z" fill="white"/>
<path d="M296.3 456C268.4 478.9 226.9 478.9 199 456C158.8 423.1 127.2 381 107.7 333.1C107.2 342.7 108.5 352.6 112.1 362.2C130.5 412.2 161.5 456.1 201.2 490.1C227.9 513 267.5 513 294.2 490.1C333.9 456.1 364.9 412.2 383.3 362.2C386.9 352.6 388.2 342.7 387.7 333.1C368.2 381 336.5 423.1 296.3 456Z" fill="#CFC3D8"/>
<path d="M383.3 362.2C364.9 412.2 333.9 456.1 294.2 490.1C267.5 513 227.9 513 201.2 490.1C161.5 456.1 130.5 412.2 112.1 362.2C97.6003 322.9 119.4 279.8 159.5 267.9C187.4 259.6 217 255.1 247.7 255.1C278.4 255.1 307.9 259.6 335.9 267.9C376 279.8 397.8 322.9 383.3 362.2Z" stroke="#430B48" stroke-width="8" stroke-miterlimit="10" stroke-linecap="round" stroke-linejoin="round"/>
<path d="M292 385H203.3C196.9 385 191.6 379.8 191.6 373.3V332.6C191.6 326.2 196.8 320.9 203.3 320.9H292C298.4 320.9 303.7 326.1 303.7 332.6V373.3C303.7 379.8 298.5 385 292 385Z" fill="url(#paint0_linear_3_1266)"/>
<path d="M191.7 367L205.8 342.8L217.2 376.6L233.3 339.9L245.8 366.3L254.8 332.3L271.2 376.6L285.9 340.4L303.7 366.3" stroke="#3A3A3A" stroke-width="4" stroke-miterlimit="10" stroke-linecap="round" stroke-linejoin="round"/>
<path opacity="0.3" d="M293.6 341.1H201.7C196.1 341.1 191.6 336.6 191.6 331C191.6 325.4 196.1 320.9 201.7 320.9H293.6C299.2 320.9 303.7 325.4 303.7 331C303.7 336.6 299.2 341.1 293.6 341.1Z" fill="white"/>
<path d="M292 385H203.3C196.9 385 191.6 379.8 191.6 373.3V332.6C191.6 326.2 196.8 320.9 203.3 320.9H292C298.4 320.9 303.7 326.1 303.7 332.6V373.3C303.7 379.8 298.5 385 292 385Z" stroke="#430B48" stroke-width="6" stroke-miterlimit="10" stroke-linecap="round" stroke-linejoin="round"/>
<path d="M247.7 23.0999C255.156 23.0999 261.2 20.5927 261.2 17.4999C261.2 14.4071 255.156 11.8999 247.7 11.8999C240.244 11.8999 234.2 14.4071 234.2 17.4999C234.2 20.5927 240.244 23.0999 247.7 23.0999Z" fill="white"/>
<path d="M246.4 116C249.879 116 252.7 113.806 252.7 111.1C252.7 108.394 249.879 106.2 246.4 106.2C242.921 106.2 240.1 108.394 240.1 111.1C240.1 113.806 242.921 116 246.4 116Z" fill="#E6EEF1"/>
<path d="M411.1 116.1C413.972 116.1 416.3 114.309 416.3 112.1C416.3 109.891 413.972 108.1 411.1 108.1C408.228 108.1 405.9 109.891 405.9 112.1C405.9 114.309 408.228 116.1 411.1 116.1Z" fill="white"/>
<path d="M84.3001 116.1C87.172 116.1 89.5001 114.309 89.5001 112.1C89.5001 109.891 87.172 108.1 84.3001 108.1C81.4282 108.1 79.1001 109.891 79.1001 112.1C79.1001 114.309 81.4282 116.1 84.3001 116.1Z" fill="white"/>
<path d="M248.3 419.4C254.762 419.4 260 414.162 260 407.7C260 401.238 254.762 396 248.3 396C241.838 396 236.6 401.238 236.6 407.7C236.6 414.162 241.838 419.4 248.3 419.4Z" fill="#CFC3D8"/>
<path d="M248.3 419.4C254.762 419.4 260 414.162 260 407.7C260 401.238 254.762 396 248.3 396C241.838 396 236.6 401.238 236.6 407.7C236.6 414.162 241.838 419.4 248.3 419.4Z" stroke="#430B48" stroke-width="4" stroke-miterlimit="10" stroke-linecap="round" stroke-linejoin="round"/>
<path d="M254.8 405.3L253.5 403.1C253.3 402.8 252.9 402.6 252.5 402.8C251.4 403.4 250.1 402.6 250.1 401.4C250.1 401 249.8 400.7 249.4 400.7H246.9C246.5 400.7 246.2 401 246.2 401.4C246.2 402.6 244.9 403.4 243.8 402.8C243.5 402.6 243 402.7 242.8 403.1L241.5 405.3C241.3 405.6 241.4 406.1 241.8 406.3C242.9 406.9 242.9 408.4 241.8 409C241.5 409.2 241.3 409.6 241.5 410L242.8 412.2C243 412.5 243.4 412.7 243.8 412.5C244.9 411.9 246.2 412.7 246.2 413.9C246.2 414.3 246.5 414.6 246.9 414.6H249.4C249.8 414.6 250.1 414.3 250.1 413.9C250.1 412.7 251.4 411.9 252.5 412.5C252.8 412.7 253.3 412.6 253.5 412.2L254.8 410C255 409.7 254.9 409.2 254.5 409C253.4 408.4 253.4 406.9 254.5 406.3C254.9 406.1 255 405.7 254.8 405.3Z" fill="#430B48"/>
<defs>
<linearGradient id="paint0_linear_3_1266" x1="247.687" y1="384.985" x2="247.687" y2="320.985" gradientUnits="userSpaceOnUse">
<stop stop-color="#57AA63"/>
<stop offset="1" stop-color="#9AA642"/>
</linearGradient>
</defs>
</svg>
